{"title":"Lost S01E04 - AVM","uid":5033209,"size":161423710,"categoryP":"video","categoryS":"tv_shows","magnet":"?xt=urn:btih:4ea526b2c6d28f057572ad17be610c4c27bb1031&amp;dn=Lost+S01E04+-+AVM&amp;tr=udp%3A%2F%2Ftracker.openbittorrent.com%3A80&amp;tr=udp%3A%2F%2Fopen.demonii.com%3A1337&amp;tr=udp%3A%2F%2Ftracker.coppersurfer.tk%3A6969&amp;tr=udp%3A%2F%2Fexodus.desync.com%3A6969","seeders":1,"leechers":0,"uploader":"SysProfile","files":2,"time":1248988581,"description":"AVIDMobile - http://www.avidmobile.com.ar (Mobile media)\n\nVideo\nID : 1\nFormat : MPEG-4 Visual\nFormat profile : Simple@L1\nFormat settings, BVOP : No\nFormat settings, QPel : No\nFormat settings, GMC : No warppoints\nFormat settings, Matrix : Default (H.263)\nCodec ID : 20\nDuration : 42mn 44s\nBit rate mode : Variable\nBit rate : 503 Kbps\nMaximum bit rate : 2 247 Kbps\nWidth : 320 pixels\nHeight : 240 pixels\nDisplay aspect ratio : 4/3\nFrame rate mode : Variable\nFrame rate : 23.976 fps\nMinimum frame rate : 23.974 fps\nMaximum frame rate : 23.981 fps\nResolution : 24 bits\nColorimetry : 4:2:0\nScan type : Progressive\nBits/(Pixel*Frame) : 0.273\nStream size : 154 MiB (88%)\n\nAudio\nID : 2\nFormat : AAC\nFormat/Info : Advanced Audio Codec\nFormat version : Version 4\nFormat profile : LC\nFormat settings, SBR : No\nCodec ID : 40\nDuration : 42mn 44s\nBit rate mode : Variable\nBit rate : 64.2 Kbps\nMaximum bit rate : 103 Kbps\nChannel(s) : 2 channels\nChannel positions : L R\nSampling rate : 22.05 KHz\nResolution : 16 bits\nStream size : 19.6 MiB (11%)","torrent":{"xt":"urn:btih:4ea526b2c6d28f057572ad17be610c4c27bb1031","amp;dn":"Lost+S01E04+-+AVM","amp;tr":["udp%3A%2F%2Ftracker.openbittorrent.com%3A80","udp%3A%2F%2Fopen.demonii.com%3A1337","udp%3A%2F%2Ftracker.coppersurfer.tk%3A6969","udp%3A%2F%2Fexodus.desync.com%3A6969"],"infoHash":"4ea526b2c6d28f057572ad17be610c4c27bb1031","infoHashBuffer":{"type":"Buffer","data":[78,165,38,178,198,210,143,5,117,114,173,23,190,97,12,76,39,187,16,49]},"announce":[],"urlList":[]}}